<mxfile host="app.diagrams.net" agent="Mozilla/5.0 (Windows NT 10.0; Win64; x64) AppleWebKit/537.36 (KHTML, like Gecko) Chrome/136.0.0.0 Safari/537.36 Edg/136.0.0.0" version="26.2.12">
  <diagram name="Page-1" id="qDOGrn0sC_JVhHV-qT_L">
    <mxGraphModel dx="628" dy="404" grid="1" gridSize="10" guides="1" tooltips="1" connect="1" arrows="1" fold="1" page="1" pageScale="1" pageWidth="100" pageHeight="100" math="0" shadow="0">
      <root>
        <mxCell id="0" />
        <mxCell id="1" parent="0" />
        <mxCell id="-cqWho3UK3aReYZjV8gj-11" value="R" style="text;html=1;align=center;verticalAlign=middle;whiteSpace=wrap;rounded=0;fontStyle=1;fontSize=80;fontColor=#3333FF;fontFamily=Georgia;" vertex="1" parent="1">
          <mxGeometry width="100" height="100" as="geometry" />
        </mxCell>
        <mxCell id="-cqWho3UK3aReYZjV8gj-10" value="P" style="text;html=1;align=center;verticalAlign=middle;whiteSpace=wrap;rounded=0;fontStyle=1;fontSize=80;fontFamily=Georgia;" vertex="1" parent="1">
          <mxGeometry width="100" height="100" as="geometry" />
        </mxCell>
      </root>
    </mxGraphModel>
  </diagram>
</mxfile>
